<svg xmlns="http://www.w3.org/2000/svg" xmlns:xlink="http://www.w3.org/1999/xlink" width="295" height="210" viewBox="0 0 295 210">
  <defs>
    <clipPath id="clip-path">
      <rect id="長方形_12024" data-name="長方形 12024" width="145.44" height="121.292" fill="none"/>
    </clipPath>
  </defs>
  <g id="グループ_7808" data-name="グループ 7808" transform="translate(-4306 -1791)">
    <rect id="長方形_12338" data-name="長方形 12338" width="295" height="210" transform="translate(4306 1791)" fill="none"/>
    <g id="グループ_7805" data-name="グループ 7805" transform="translate(4156.025 -1249)">
      <g id="楕円形_23" data-name="楕円形 23" transform="translate(193 3045.5)" fill="#f2f2f2" stroke="#f9f5f5" stroke-width="1">
        <ellipse cx="104.475" cy="99.5" rx="104.475" ry="99.5" stroke="none"/>
        <ellipse cx="104.475" cy="99.5" rx="103.975" ry="99" fill="none"/>
      </g>
      <g id="グループ_7637" data-name="グループ 7637" transform="translate(225 3082.702)">
        <g id="グループ_7564" data-name="グループ 7564" clip-path="url(#clip-path)">
          <path id="パス_34718" data-name="パス 34718" d="M116.268,57.01a8.177,8.177,0,0,1-9.438-2.767,7.634,7.634,0,0,1-6.3-5.395c-1.181-3.458-.288-7.978.5-11.331,1.613-6.888,3.141-12.478,7.189-14.542,2.956-6.03,14.069-7.95,20.778-4.19,6,3.362,7.852,7.6,9.61,10.572,3.529,5.979,5.126,11.606,3.772,16.39-1.73,6.106-6.166,7.121-6.746,7.633-.289.255-2.887,4.611-10.147,3.384" transform="translate(-7.918 -1.335)"/>
          <path id="パス_34719" data-name="パス 34719" d="M116.268,57.01a8.177,8.177,0,0,1-9.438-2.767,7.634,7.634,0,0,1-6.3-5.395c-1.181-3.458-.288-7.978.5-11.331,1.613-6.888,3.141-12.478,7.189-14.542,2.956-6.03,14.069-7.95,20.778-4.19,6,3.362,7.852,7.6,9.61,10.572,3.529,5.979,5.126,11.606,3.772,16.39-1.73,6.106-6.166,7.121-6.746,7.633-.289.255-2.887,4.611-10.147,3.384" transform="translate(-7.918 -1.335)" fill="none" stroke="#000" stroke-linecap="round" stroke-linejoin="round" stroke-width="1.488"/>
          <path id="パス_34720" data-name="パス 34720" d="M97.4,123.3c-.722-7.43-2.031-29.6-1.43-38.986.262-4.084.507-9.874,4.969-14.022,2.877-2.676,6.981-3.312,10.486-3.136l21.974.114c9.353.469,13.626,1.154,15.812,14.34a202.742,202.742,0,0,1,2.462,23.232c.106,2.5-6.227,6.4-10.246,2.718,0,4.505-.134,11.485-.134,18.364" transform="translate(-7.591 -5.318)" fill="#4682b4"/>
          <path id="パス_34721" data-name="パス 34721" d="M97.4,123.3c-.722-7.43-2.031-29.6-1.43-38.986.262-4.084.507-9.874,4.969-14.022,2.877-2.676,6.981-3.312,10.486-3.136l21.974.114c9.353.469,13.626,1.154,15.812,14.34a202.742,202.742,0,0,1,2.462,23.232c.106,2.5-6.227,6.4-10.246,2.718,0,4.505-.134,11.485-.134,18.364" transform="translate(-7.591 -5.318)" fill="none" stroke="#000" stroke-linecap="round" stroke-linejoin="round" stroke-width="1.488"/>
          <path id="パス_34722" data-name="パス 34722" d="M134.14,41.319c2.581.423,4.888,3.16,2.719,7a4.772,4.772,0,0,1-4.184,2.156c-1.329,3.524-4.051,6.6-7.2,7.746.122,1.408-.5,4.272.934,5.344,1.363,1.018,5.026.877,7.066,1.121-4.771,2.789-9.718,4.086-12.752,4.086-2.719,0-7.874-1.992-10.734-4.245,2.14.2,5.527,0,7.1-1.075.956-.654.517-3.535.419-4.944-4.434-1.138-7.155-3.626-8.276-7.615-1.958.047-3.706-1.7-4.5-3.3-1.265-2.576-.1-5.763,2.923-6.176,2.6-1.653,4.213-5.259,5.413-9.119,3.473,4.186,10.738,6.826,15.572,6.024a14.113,14.113,0,0,0,5.422,1.931,3.531,3.531,0,0,0,.066,1.075" transform="translate(-8.258 -2.558)" fill="#fff"/>
          <path id="パス_34723" data-name="パス 34723" d="M111.715,29.215c3.378,5.181,8.131,9.314,17.195,8.865" transform="translate(-8.85 -2.314)" fill="none" stroke="#000" stroke-linecap="round" stroke-linejoin="round" stroke-width="1.488"/>
          <path id="パス_34724" data-name="パス 34724" d="M126.113,33.992c2.9,4.258,5.968,6.155,11.362,6.842" transform="translate(-9.99 -2.693)" fill="none" stroke="#000" stroke-linecap="round" stroke-linejoin="round" stroke-width="1.488"/>
          <path id="パス_34725" data-name="パス 34725" d="M108.046,42.452a3.451,3.451,0,0,0-3.519,3.053c-.551,3.212,1,5.816,4.38,5.816a11.412,11.412,0,0,0,8.621,7.961,29.353,29.353,0,0,1,.145,3.748,2.028,2.028,0,0,1-1.147,1.619c-1.859.819-4.441.405-6.768.54a22.113,22.113,0,0,0,11.9,4.32c4.007,0,7.922-2.064,12.427-4.221-2.43,0-5.452.047-6.787-.41a2.75,2.75,0,0,1-1.735-2.224,16.187,16.187,0,0,1-.071-3.66c3.37-1.163,6.765-4.065,7.543-7.736a4.7,4.7,0,0,0,3.838-2.165c1.977-3.758-.284-7.619-3.63-6.881" transform="translate(-8.272 -3.337)" fill="none" stroke="#000" stroke-linecap="round" stroke-linejoin="round" stroke-width="1.488"/>
          <path id="パス_34726" data-name="パス 34726" d="M103.958,89.456c-1.144,11.079,2.551,19.756.2,35.387" transform="translate(-8.217 -7.086)" fill="none" stroke="#000" stroke-linecap="round" stroke-linejoin="round" stroke-width="1.488"/>
          <path id="パス_34727" data-name="パス 34727" d="M107.228,41.744c3.32-1.382,5.139-5.85,6.088-9.455" transform="translate(-8.494 -2.558)" fill="none" stroke="#000" stroke-linecap="round" stroke-linejoin="round" stroke-width="1.488"/>
          <path id="パス_34728" data-name="パス 34728" d="M119.587,46.573a1.478,1.478,0,0,1-.453,1.533c-.126.1-.284.2-.307.366a.5.5,0,0,0,.088.3c.192.343.4.675.622.994" transform="translate(-9.413 -3.689)" fill="none" stroke="#000" stroke-linecap="round" stroke-linejoin="round" stroke-width="1.346"/>
          <path id="パス_34729" data-name="パス 34729" d="M124.484,52.61a11.45,11.45,0,0,1-5.755.016c.254.926,1.144,4.405,3.342,4.235,1.554-.121,2.427-3.179,2.413-4.25" transform="translate(-9.405 -4.168)" fill="#fff"/>
          <path id="パス_34730" data-name="パス 34730" d="M124.484,52.61a11.45,11.45,0,0,1-5.755.016c.254.926,1.144,4.405,3.342,4.235C123.625,56.74,124.5,53.681,124.484,52.61Z" transform="translate(-9.405 -4.168)" fill="none" stroke="#000" stroke-linecap="round" stroke-linejoin="round" stroke-width="1.346"/>
          <path id="パス_34731" data-name="パス 34731" d="M117.23,43.624a1.425,1.425,0,1,0-1.263,1.617,1.452,1.452,0,0,0,1.263-1.617" transform="translate(-9.061 -3.35)"/>
          <path id="パス_34732" data-name="パス 34732" d="M128.742,43.543a1.425,1.425,0,1,0-1.263,1.617,1.453,1.453,0,0,0,1.263-1.617" transform="translate(-9.973 -3.344)"/>
          <path id="パス_34733" data-name="パス 34733" d="M133.526,67.747c-2.008,7.244-5.432,13.807-11.161,18.038-5.021-4.179-10.712-11.676-11.576-18.185" transform="translate(-8.776 -5.355)" fill="none" stroke="#000" stroke-linecap="round" stroke-linejoin="round" stroke-width="1.488"/>
          <rect id="長方形_12022" data-name="長方形 12022" width="13.812" height="10.589" transform="translate(106.607 80.051)" fill="#fff"/>
          <rect id="長方形_12023" data-name="長方形 12023" width="13.812" height="10.589" transform="translate(106.607 80.051)" fill="none" stroke="#000" stroke-linecap="round" stroke-linejoin="round" stroke-width="1.488"/>
          <path id="パス_34734" data-name="パス 34734" d="M136.521,71.483c-.385,1.982,1.337,4.06,2.823,5.426,0,0,3.3,25.473,5.01,27.784,3.873,5.245,9.695,2.681,9.992-1.488.441-6.193-9.167-26.855-9.507-29.323a1.9,1.9,0,0,1,.609-1.643,48.467,48.467,0,0,0,6.033-6.771,2,2,0,0,0,.53-1.334,1.979,1.979,0,0,0-.38-.835,37.812,37.812,0,0,0-3.263-4.214,2.212,2.212,0,0,0-.869-.684c-.81-.278-1.61.4-2.24,1.027a1.6,1.6,0,0,0-1.585.152,4.57,4.57,0,0,0-1.143,1.205.544.544,0,0,0-.611-.1,1.578,1.578,0,0,0-.514.408l-.914.96a1.749,1.749,0,0,1-.343.3,2.29,2.29,0,0,1-.389.162,3.805,3.805,0,0,0-1.463.965,1.182,1.182,0,0,0-.3.461,1.4,1.4,0,0,0,.008.624c.173,1.047.345,2.095.515,3.119a8.813,8.813,0,0,0-2,3.8" transform="translate(-10.81 -4.621)" fill="#fff"/>
          <path id="パス_34735" data-name="パス 34735" d="M148.65,62.995a21.586,21.586,0,0,0-3.447-3.634,1.736,1.736,0,0,0-.855-.462c-.684-.081-1.189.6-1.536,1.193" transform="translate(-11.313 -4.665)" fill="none" stroke="#000" stroke-linecap="round" stroke-linejoin="round" stroke-width="1.488"/>
          <path id="パス_34736" data-name="パス 34736" d="M146.052,63.719a17.351,17.351,0,0,0-3.42-3.262.892.892,0,0,0-.428-.2.821.821,0,0,0-.476.159A4.087,4.087,0,0,0,140.258,62" transform="translate(-11.111 -4.773)" fill="none" stroke="#000" stroke-linecap="round" stroke-linejoin="round" stroke-width="1.488"/>
          <path id="パス_34737" data-name="パス 34737" d="M143.4,65.784l-2.253-2.5a1.828,1.828,0,0,0-.547-.467c-.572-.273-1.229.09-1.757.44a1.325,1.325,0,0,0-.7,1.879q.344,1.122.689,2.243" transform="translate(-10.932 -4.969)" fill="none" stroke="#000" stroke-linecap="round" stroke-linejoin="round" stroke-width="1.488"/>
          <path id="パス_34738" data-name="パス 34738" d="M139.661,66.439a9.1,9.1,0,0,0-3.141,5.044c-.385,1.981,1.338,4.06,2.823,5.425,0,0,3.245,25.451,5.284,28.137,3.944,5.192,9.933,1.328,9.712-2.847-.255-4.822-4.218-12.419-6.37-18.333-1.223-3.361-2.8-7.569-3.132-9.984a1.908,1.908,0,0,1,.609-1.643,48.474,48.474,0,0,0,6.033-6.771,1.993,1.993,0,0,0,.53-1.333,1.96,1.96,0,0,0-.38-.836,37.791,37.791,0,0,0-3.263-4.214,2.2,2.2,0,0,0-.869-.683c-.809-.278-1.609.4-2.2,1.017" transform="translate(-10.81 -4.621)" fill="none" stroke="#000" stroke-linecap="round" stroke-linejoin="round" stroke-width="1.488"/>
          <path id="パス_34739" data-name="パス 34739" d="M148.083,77.913c-2.277-1.005-7.654.527-10.13,2.1.367,7.161,3.665,23.052,5.655,27.508,2.7,6.052,10.9,3.24,11.829-.5,1.722-6.91-6.135-25.857-7.354-29.1" transform="translate(-10.928 -6.147)" fill="#4682b4"/>
          <path id="パス_34740" data-name="パス 34740" d="M148.083,77.913c-2.277-1.005-7.654.527-10.13,2.1.367,7.161,3.665,23.052,5.655,27.508,2.7,6.052,10.9,3.24,11.829-.5C157.159,100.105,149.3,81.157,148.083,77.913Z" transform="translate(-10.928 -6.147)" fill="none" stroke="#000" stroke-linecap="round" stroke-linejoin="round" stroke-width="1.488"/>
          <path id="パス_34741" data-name="パス 34741" d="M79.052,114.767c.262-12.964.212-29.439-1.2-40.7-.616-4.923-2.6-12-8.31-15.066-5.984-3.22-12.026-3.53-17.822-5.151-.106-.227-9.1,6.91-9.1,6.91l-7.688-6.754c-4.691.571-16.621,1.026-22.131,8.38C8.67,67.9,5.377,73.947,1.761,87.832.052,94.39,9.517,103.042,16,92.234c.192,1.8.423,22.846.615,24.648" transform="translate(-0.123 -4.265)" fill="#01396d"/>
          <path id="パス_34742" data-name="パス 34742" d="M79.052,114.767c.262-12.964.212-29.439-1.2-40.7-.616-4.923-2.6-12-8.31-15.066-5.984-3.22-12.026-3.53-17.822-5.151-.106-.227-9.1,6.91-9.1,6.91l-7.688-6.754c-4.691.571-16.621,1.026-22.131,8.38C8.67,67.9,5.377,73.947,1.761,87.832.052,94.39,9.517,103.042,16,92.234c.192,1.8.423,22.846.615,24.648" transform="translate(-0.123 -4.265)" fill="none" stroke="#000" stroke-linecap="round" stroke-linejoin="round" stroke-width="1.488"/>
          <path id="パス_34743" data-name="パス 34743" d="M72.192,87.063c-.072,9.561-.591,20.814-.673,31.754" transform="translate(-5.665 -6.897)" fill="#ffe400"/>
          <path id="パス_34744" data-name="パス 34744" d="M72.192,87.063c-.072,9.561-.591,20.814-.673,31.754" transform="translate(-5.665 -6.897)" fill="none" stroke="#000" stroke-linecap="round" stroke-linejoin="round" stroke-width="1.488"/>
          <path id="パス_34745" data-name="パス 34745" d="M31.122,26.109A84.313,84.313,0,0,1,29.856,17.3c-.084-.933.213-3.108.231-4.044.042-2.241.971-5.427,4.83-7.961a4.571,4.571,0,0,1,3.125-.9C40.535-.817,54.409.785,55.686,1.781a1.658,1.658,0,0,1,.509,1.535A8.684,8.684,0,0,1,61.5,6.91a2.567,2.567,0,0,1-.134,1.784c2.973,2.035,4.146,6.894,4.1,9.111A53.045,53.045,0,0,1,63.7,27.194" transform="translate(-2.364 -0.059)"/>
          <path id="パス_34746" data-name="パス 34746" d="M31.122,26.109A84.313,84.313,0,0,1,29.856,17.3c-.084-.933.213-3.108.231-4.044.042-2.241.971-5.427,4.83-7.961a4.571,4.571,0,0,1,3.125-.9C40.535-.817,54.409.785,55.686,1.781a1.658,1.658,0,0,1,.509,1.535A8.684,8.684,0,0,1,61.5,6.91a2.567,2.567,0,0,1-.134,1.784c2.973,2.035,4.146,6.894,4.1,9.111A53.045,53.045,0,0,1,63.7,27.194" transform="translate(-2.364 -0.059)" fill="none" stroke="#000" stroke-linecap="round" stroke-linejoin="round" stroke-width="1.488"/>
          <path id="パス_34747" data-name="パス 34747" d="M34.906,55.175q1.4,15.556,3.525,31.036c1.7,12.4,3.12,21.087,8.918,32.476,1.439-1.833,7.373-16.924,9.518-25.79,4.086-16.884,3.062-30.757,1.69-36.619l-10.277,4Z" transform="translate(-2.765 -4.371)" fill="#fff"/>
          <path id="パス_34748" data-name="パス 34748" d="M48.916,60.65l-4.082,2.482,1.494,5.648H51.21l2.2-5.221Z" transform="translate(-3.552 -4.804)"/>
          <path id="パス_34749" data-name="パス 34749" d="M48.916,60.65l-4.082,2.482,1.494,5.648H51.21l2.2-5.221Z" transform="translate(-3.552 -4.804)" fill="none" stroke="#000" stroke-linecap="round" stroke-linejoin="round" stroke-width="1.488"/>
          <path id="パス_34750" data-name="パス 34750" d="M48.526,120.235l-5.282-14.968L46.2,69.48h4.883l1.366,33.162c.043.912.494,2.269.219,3.145Z" transform="translate(-3.426 -5.504)"/>
          <path id="パス_34751" data-name="パス 34751" d="M48.526,120.235l-5.282-14.968L46.2,69.48h4.883l1.366,33.162c.043.912.494,2.269.219,3.145Z" transform="translate(-3.426 -5.504)" fill="none" stroke="#000" stroke-linecap="round" stroke-linejoin="round" stroke-width="1.488"/>
          <path id="パス_34752" data-name="パス 34752" d="M38.093,15.072A7.7,7.7,0,0,0,34.271,18c-.355,3.38-.607,9.5-.607,9.5a2.744,2.744,0,0,0-4.522.865c-1.682,3.612-.727,8.785,5.341,9.072,0,0,.485,1.331,1.957,4.469.672,1.431,2.461,4.449,7.661,5.468a21.188,21.188,0,0,0,7.941.032c1.7-.318,4.638-.68,6.957-5.963a18.093,18.093,0,0,0,1.282-3.524c5.177-1.274,5.511-5.927,4.019-8.424-.9-1.5-3.313-1.526-3.313-1.526a30.292,30.292,0,0,0-.843-10.013c-1.7-1.982-3.217-3.367-5.887-3.933a13.556,13.556,0,0,0-5.582-.263.344.344,0,0,1-.3-.042.292.292,0,0,1-.073-.161,1.17,1.17,0,0,1,.219-.931,7.916,7.916,0,0,0-3.04.878.67.67,0,0,1-.254.094.437.437,0,0,1-.4-.3,1.275,1.275,0,0,1-.041-.535,3.912,3.912,0,0,0-1.246.948.678.678,0,0,1-.281.23.606.606,0,0,1-.287,0,10.477,10.477,0,0,1-2.076-.569,1.4,1.4,0,0,0-.2,1,6.277,6.277,0,0,0-2.6.7" transform="translate(-2.25 -1)" fill="#fff"/>
          <path id="パス_34753" data-name="パス 34753" d="M37.78,46.062s.25,7.271.023,7.327c2.356,2.205,7.946,4.786,11.835,6.824,2.647-1.874,4.973-5.43,6.906-7.494.051-.8-.152-4.108-.116-4.356" transform="translate(-2.993 -3.649)" fill="#fff"/>
          <path id="パス_34754" data-name="パス 34754" d="M37.78,46.062s.25,7.271.023,7.327c2.356,2.205,7.946,4.786,11.835,6.824,2.647-1.874,4.973-5.43,6.906-7.494.051-.8-.152-4.108-.116-4.356" transform="translate(-2.993 -3.649)" fill="none" stroke="#000" stroke-linecap="round" stroke-linejoin="round" stroke-width="1.488"/>
          <path id="パス_34755" data-name="パス 34755" d="M57.927,52.715c-3.153,4.179-4.724,5.089-7.8,7.3,2.333,1.623,5.66,4.036,8.638,6.535,1.229-6.922,1.6-10.676,1.759-12.656a11.561,11.561,0,0,0-2.6-1.178" transform="translate(-3.971 -4.176)" fill="#fff"/>
          <path id="パス_34756" data-name="パス 34756" d="M57.927,52.715c-3.153,4.179-4.724,5.089-7.8,7.3,2.333,1.623,5.66,4.036,8.638,6.535,1.229-6.922,1.6-10.676,1.759-12.656A11.561,11.561,0,0,0,57.927,52.715Z" transform="translate(-3.971 -4.176)" fill="none" stroke="#000" stroke-linecap="round" stroke-linejoin="round" stroke-width="1.488"/>
          <path id="パス_34757" data-name="パス 34757" d="M37.649,52.912c2.3,2.893,6.193,5.3,9.672,6.746-2.143,1.985-8.152,5.665-10.412,7.59a83.032,83.032,0,0,1-1.4-13.09c.664-.894,1.544-.821,2.136-1.246" transform="translate(-2.813 -4.192)" fill="#fff"/>
          <path id="パス_34758" data-name="パス 34758" d="M37.649,52.912c2.3,2.893,6.193,5.3,9.672,6.746-2.143,1.985-8.152,5.665-10.412,7.59a83.032,83.032,0,0,1-1.4-13.09C36.177,53.264,37.057,53.336,37.649,52.912Z" transform="translate(-2.813 -4.192)" fill="none" stroke="#000" stroke-linecap="round" stroke-linejoin="round" stroke-width="1.488"/>
          <path id="パス_34759" data-name="パス 34759" d="M33.673,28.7a2.744,2.744,0,0,0-4.522.865c-1.682,3.612-.056,9.3,5.341,9.072" transform="translate(-2.259 -2.207)" fill="none" stroke="#000" stroke-linecap="round" stroke-linejoin="round" stroke-width="1.488"/>
          <path id="パス_34760" data-name="パス 34760" d="M45.025,9.355a8.73,8.73,0,0,1,3.99-3.807" transform="translate(-3.567 -0.439)" fill="none" stroke="#000" stroke-linecap="round" stroke-linejoin="round" stroke-width="1.488"/>
          <path id="パス_34761" data-name="パス 34761" d="M48.11,9.66A12.4,12.4,0,0,1,54.357,7.1" transform="translate(-3.811 -0.562)" fill="none" stroke="#000" stroke-linecap="round" stroke-linejoin="round" stroke-width="1.488"/>
          <path id="パス_34762" data-name="パス 34762" d="M51.206,10.816a11.164,11.164,0,0,1,7.666-.138" transform="translate(-4.056 -0.797)" fill="none" stroke="#000" stroke-linecap="round" stroke-linejoin="round" stroke-width="1.488"/>
          <path id="パス_34763" data-name="パス 34763" d="M55.31,14.047a12.74,12.74,0,0,1,6.966,4.018,30.418,30.418,0,0,1,1.208,10" transform="translate(-4.381 -1.113)" fill="none" stroke="#000" stroke-linecap="round" stroke-linejoin="round" stroke-width="1.488"/>
          <path id="パス_34764" data-name="パス 34764" d="M42.364,10.413a6.528,6.528,0,0,0-4.008-1.424" transform="translate(-3.038 -0.712)" fill="none" stroke="#000" stroke-linecap="round" stroke-linejoin="round" stroke-width="1.488"/>
          <path id="パス_34765" data-name="パス 34765" d="M39.111,12.078a6.065,6.065,0,0,0-4.479.968" transform="translate(-2.743 -0.949)" fill="none" stroke="#000" stroke-linecap="round" stroke-linejoin="round" stroke-width="1.488"/>
          <path id="パス_34766" data-name="パス 34766" d="M37.89,15.359a6.212,6.212,0,0,0-3.162,2.856,101.308,101.308,0,0,0-.553,10.179" transform="translate(-2.707 -1.217)" fill="none" stroke="#000" stroke-linecap="round" stroke-linejoin="round" stroke-width="1.488"/>
          <path id="パス_34767" data-name="パス 34767" d="M34.96,37.907a16.035,16.035,0,0,0,1.886,6.134c.661,1.137,2.149,4.155,7.348,5.173a21.15,21.15,0,0,0,7.941.032c1.7-.318,4.638-.68,6.958-5.962a29.082,29.082,0,0,0,2.216-8.006" transform="translate(-2.769 -2.795)" fill="none" stroke="#000" stroke-linecap="round" stroke-linejoin="round" stroke-width="1.488"/>
          <path id="パス_34768" data-name="パス 34768" d="M64.049,29.319c4.96-1.042,5,10.338-1.431,9.775" transform="translate(-4.96 -2.317)" fill="none" stroke="#000" stroke-linecap="round" stroke-linejoin="round" stroke-width="1.488"/>
          <path id="パス_34769" data-name="パス 34769" d="M50.938,32.745a10.24,10.24,0,0,0,.734,2.626,1,1,0,0,1,.117.443.913.913,0,0,1-.184.429A10.273,10.273,0,0,1,50.432,37.7" transform="translate(-3.995 -2.594)" fill="none" stroke="#000" stroke-linecap="round" stroke-linejoin="round" stroke-width="1.346"/>
          <path id="パス_34770" data-name="パス 34770" d="M45.167,41.3c.911,2.311,5.166,3.088,7.155.47" transform="translate(-3.578 -3.272)" fill="none" stroke="#000" stroke-linecap="round" stroke-linejoin="round" stroke-width="1.346"/>
          <path id="パス_34771" data-name="パス 34771" d="M54.583,22.608a4.194,4.194,0,0,1,4.144.011" transform="translate(-4.324 -1.748)" fill="none" stroke="#000" stroke-linecap="round" stroke-linejoin="round" stroke-width="1.346"/>
          <path id="パス_34772" data-name="パス 34772" d="M44.814,22.672c-.8-.988-2.963-.867-4.142-.146" transform="translate(-3.222 -1.739)" fill="none" stroke="#000" stroke-linecap="round" stroke-linejoin="round" stroke-width="1.346"/>
          <path id="パス_34773" data-name="パス 34773" d="M47.21,119.471S36.576,78.878,35.738,53.478a19.24,19.24,0,0,0-6.28,1.437c-1,2.74-2.22,7.57-2.694,8.451l5.667,2.716-5.62,2.905s8.12,28.371,20.4,50.483" transform="translate(-2.12 -4.236)" fill="#01396d"/>
          <path id="パス_34774" data-name="パス 34774" d="M47.21,119.471S36.576,78.878,35.738,53.478a19.24,19.24,0,0,0-6.28,1.437c-1,2.74-2.22,7.57-2.694,8.451l5.667,2.716-5.62,2.905S34.931,97.359,47.21,119.471Z" transform="translate(-2.12 -4.236)" fill="none" stroke="#000" stroke-linecap="round" stroke-linejoin="round" stroke-width="1.488"/>
          <path id="パス_34775" data-name="パス 34775" d="M48.949,118.137c4.478-19.656,9.5-45.287,11.184-64.06a21.148,21.148,0,0,1,6.41,2.005c.787,2.809,1.9,7.1,2.3,8.013L62.319,66.09l6.63,4.1c-4.6,20.19-20,47.947-20,47.947" transform="translate(-3.878 -4.284)" fill="#01396d"/>
          <path id="パス_34776" data-name="パス 34776" d="M48.949,118.137c4.478-19.656,9.5-45.287,11.184-64.06a21.148,21.148,0,0,1,6.41,2.005c.787,2.809,1.9,7.1,2.3,8.013L62.319,66.09l6.63,4.1C64.348,90.38,48.949,118.137,48.949,118.137Z" transform="translate(-3.878 -4.284)" fill="none" stroke="#000" stroke-linecap="round" stroke-linejoin="round" stroke-width="1.488"/>
          <path id="パス_34777" data-name="パス 34777" d="M44.7,29.324a1.425,1.425,0,1,0-1.354,1.54,1.452,1.452,0,0,0,1.354-1.54" transform="translate(-3.316 -2.211)"/>
          <path id="パス_34778" data-name="パス 34778" d="M56.849,29.236a1.425,1.425,0,1,0-1.209,1.657,1.451,1.451,0,0,0,1.209-1.657" transform="translate(-4.279 -2.214)"/>
          <path id="パス_34779" data-name="パス 34779" d="M18.264,38.465a3.963,3.963,0,0,1,2.249-1.2,3.943,3.943,0,0,1,1.576.373,7.624,7.624,0,0,1,2.932,1.682.583.583,0,0,1,.153.837,5.782,5.782,0,0,1-.792,1.05L24.407,41" transform="translate(-1.447 -2.952)" fill="#fff"/>
          <path id="パス_34780" data-name="パス 34780" d="M18.264,38.465a3.963,3.963,0,0,1,2.249-1.2,3.943,3.943,0,0,1,1.576.373,7.624,7.624,0,0,1,2.932,1.682.583.583,0,0,1,.153.837,5.782,5.782,0,0,1-.792,1.05L24.407,41" transform="translate(-1.447 -2.952)" fill="none" stroke="#000" stroke-linecap="round" stroke-linejoin="round" stroke-width="1.488"/>
          <path id="パス_34781" data-name="パス 34781" d="M13.124,55.731a45.924,45.924,0,0,1-3.255-10.04,18.421,18.421,0,0,1,3.636-7.118,2.445,2.445,0,0,1,1.567-.951c1.336.076,1.377.49,2.214.994a4.374,4.374,0,0,1,2.8,1.185A3.909,3.909,0,0,1,23.3,41.274c.14.187,1.373.508,1.854.8a3.327,3.327,0,0,1,1.092,1.465,15.675,15.675,0,0,1-1.094,4.34,5.248,5.248,0,0,0-.686,3.088s-.018.146-.04.373q-.033.412-.067.823s-.015.2-.042.453a9.633,9.633,0,0,1-.272,1.125,4.7,4.7,0,0,1-2.238,3.286q-.5,1.413-1.1,2.784" transform="translate(-0.782 -2.98)" fill="#fff"/>
          <path id="パス_34782" data-name="パス 34782" d="M13.124,55.731a45.924,45.924,0,0,1-3.255-10.04,18.421,18.421,0,0,1,3.636-7.118,2.445,2.445,0,0,1,1.567-.951c1.336.076,1.377.49,2.214.994a4.374,4.374,0,0,1,2.8,1.185A3.909,3.909,0,0,1,23.3,41.274c.14.187,1.373.508,1.854.8a3.327,3.327,0,0,1,1.092,1.465,15.675,15.675,0,0,1-1.094,4.34,5.248,5.248,0,0,0-.686,3.088s-.018.146-.04.373q-.033.412-.067.823s-.015.2-.042.453a9.633,9.633,0,0,1-.272,1.125,4.7,4.7,0,0,1-2.238,3.286q-.5,1.413-1.1,2.784" transform="translate(-0.782 -2.98)" fill="none" stroke="#000" stroke-linecap="round" stroke-linejoin="round" stroke-width="1.488"/>
          <path id="パス_34783" data-name="パス 34783" d="M21.656,48.356q1.1-3.019,2.488-5.922" transform="translate(-1.716 -3.361)" fill="#fff"/>
          <path id="パス_34784" data-name="パス 34784" d="M21.656,48.356q1.1-3.019,2.488-5.922" transform="translate(-1.716 -3.361)" fill="none" stroke="#000" stroke-linecap="round" stroke-linejoin="round" stroke-width="1.205"/>
          <path id="パス_34785" data-name="パス 34785" d="M17.87,46.884q1.322-3.257,2.877-6.412" transform="translate(-1.416 -3.206)" fill="#fff"/>
          <path id="パス_34786" data-name="パス 34786" d="M17.87,46.884q1.322-3.257,2.877-6.412" transform="translate(-1.416 -3.206)" fill="none" stroke="#000" stroke-linecap="round" stroke-linejoin="round" stroke-width="1.205"/>
          <path id="パス_34787" data-name="パス 34787" d="M14.9,45.081q1.214-2.936,2.685-5.756" transform="translate(-1.18 -3.115)" fill="#fff"/>
          <path id="パス_34788" data-name="パス 34788" d="M14.9,45.081q1.214-2.936,2.685-5.756" transform="translate(-1.18 -3.115)" fill="none" stroke="#000" stroke-linecap="round" stroke-linejoin="round" stroke-width="1.205"/>
          <path id="パス_34789" data-name="パス 34789" d="M1.576,82.257c2.159-7.72,5.765-20.126,7.269-24.523.536-1.566,13.067,2.123,13.5,3.667.052.188-2.655,16.063-4.835,25.6-2.088,9.13-6.065,11.981-11.094,10.809-5.99-1.4-6.522-9.521-4.835-15.555" transform="translate(-0.059 -4.543)" fill="#01396d"/>
          <path id="パス_34790" data-name="パス 34790" d="M1.576,82.257c2.159-7.72,5.765-20.126,7.269-24.523.536-1.566,13.067,2.123,13.5,3.667.052.188-2.655,16.063-4.835,25.6-2.088,9.13-6.065,11.981-11.094,10.809C.422,96.415-.111,88.29,1.576,82.257Z" transform="translate(-0.059 -4.543)" fill="none" stroke="#000" stroke-linecap="round" stroke-linejoin="round" stroke-width="1.488"/>
        </g>
      </g>
    </g>
  </g>
</svg>
