<svg xmlns="http://www.w3.org/2000/svg" xmlns:xlink="http://www.w3.org/1999/xlink" width="22" height="22" viewBox="0 0 22 22">
  <defs>
    <clipPath id="clip-path">
      <rect width="22" height="22" fill="none"/>
    </clipPath>
  </defs>
  <g id="icon_form" clip-path="url(#clip-path)">
    <rect id="長方形_9528" data-name="長方形 9528" width="22" height="22" rx="11" fill="#00c41e"/>
    <path id="合体_658" data-name="合体 658" d="M-857,17783.547l-3.91-3.91a.5.5,0,0,1,0-.709l.611-.611a.494.494,0,0,1,.705,0l2.946,2.945,6.574-6.574a.494.494,0,0,1,.705,0l.611.611a.5.5,0,0,1,0,.705l-6.89,6.891q-.017.021-.037.041l-.611.611a.5.5,0,0,1-.354.146A.49.49,0,0,1-857,17783.547Z" transform="translate(866.054 -17768.039)" fill="#fff"/>
  </g>
</svg>
