<svg xmlns="http://www.w3.org/2000/svg" width="97.6" height="85.157" viewBox="0 0 97.6 85.157">
  <g id="グループ_7259" data-name="グループ 7259" transform="translate(-371.281 -243.88)">
    <path id="パス_35564" data-name="パス 35564" d="M467.364,297.819c-3.956-5.125-12.207.662-12.5.873-.034.023-1.02.635-2.53,1.508v-47.18l5.633-5.161v4.709h2.261V244.23h-8.339v2.261h4.225l-29.267,26.822-12.171-8.662L394.121,285.2l1.6,1.6,5.814-5.816v10.681H390.489v-4.677H371.631v37.537h18.858v-5.7h7.781l22.138,7.917a18.542,18.542,0,0,0,7.507,1.949,11.608,11.608,0,0,0,6.388-1.854l29.292-19.3c.17-.093,4.148-2.31,4.831-5.581A4.986,4.986,0,0,0,467.364,297.819Zm-17.291,3.646a64.075,64.075,0,0,1-9.874,4.505V264.139l9.874-9.047Zm-34.143-33.151,9.874,7.03v22.545h-7.394a6.708,6.708,0,0,1-2.48-.5Zm12.135,6.944,9.874-9.047v33.4a7.48,7.48,0,0,0-1.718-1.246,4.222,4.222,0,0,0-1.96-.472h-6.2Zm-14.4-6.406v27.536l-9.291-4.282a4.657,4.657,0,0,0-.583-.194V278.726Zm-25.44,53.413H373.892V289.249h14.336v33.016Zm77.985-20.775c-.387,1.867-2.808,3.569-3.784,4.112l-29.41,19.371a9.5,9.5,0,0,1-5.1,1.454,16.847,16.847,0,0,1-6.6-1.754l-22.465-8.045-8.357-.052V293.926h11.875a2.575,2.575,0,0,1,1.067.233l11.21,5.165a8.97,8.97,0,0,0,3.768.825H434.26a1.977,1.977,0,0,1,.918.219,4.335,4.335,0,0,1,2.534,3.963,2.176,2.176,0,0,1-.644,1.673,5.308,5.308,0,0,1-3.538.992l-16.7,0-.242.027c-.233.05-5.746,1.3-5.746,5.5v1.13h2.261v-1.13c0-2.129,3.242-3.1,3.866-3.267l16.5-.007a8.514,8.514,0,0,0,1.827-.111l0,.036,1.126-.077c4.51-.312,11.4-3.777,15.731-6.2h.181v-.1c2.12-1.194,3.6-2.114,3.786-2.236.07-.045,6.863-4.731,9.454-1.368A2.714,2.714,0,0,1,466.213,301.49Z" transform="translate(0 0)" fill="#fff" stroke="#fff" stroke-miterlimit="10" stroke-width="0.7"/>
    <rect id="長方形_11614" data-name="長方形 11614" width="2.261" height="22.928" transform="translate(379.929 299.275)" fill="#fff" stroke="#fff" stroke-miterlimit="10" stroke-width="0.7"/>
  </g>
</svg>
